#!OML:ASF F:\VICON\USERDATA\INSTALL\rory3\rory3.ASF
:FULLY-SPECIFIED
:DEGREES
530
root -0.293166 17.5975 3.59223 2.1788 25.7968 -9.73281
lowerback 6.47176 2.91517 -0.782543
upperback -2.17794 3.47363 -7.50195
thorax -5.50085 1.63062 -7.88676
lowerneck -30.233 -13.4322 -11.9557
upperneck 7.20254 -16.2249 17.0673
head 9.53362 -6.18 4.97981
rclavicle 5.00937e-014 -6.36111e-015
rhumerus 68.6898 -32.678 -36.7346
rradius 35.3332
rwrist 34.2493
rhand -60.6641 -11.7591
rfingers 7.12502
rthumb -32.7838 -38.8047
lclavicle 5.00937e-014 -6.36111e-015
lhumerus -36.1687 9.97659 58.8773
lradius 51.3991
lwrist -3.32829
lhand -21.4391 20.739
lfingers 7.12502
lthumb 4.95036 50.6612
rfemur -3.62891 -10.0265 25.4032
rtibia 22.6086
rfoot -26.6579 -17.4637
rtoes 2.3388
lfemur -22.4125 -9.06398 -0.637874
ltibia 34.2662
lfoot -17.7538 -12.8284
ltoes -16.6537
531
root -0.314457 17.6044 3.58971 2.13125 25.8142 -9.60207
lowerback 6.49023 2.87197 -0.887889
upperback -2.10525 3.41171 -7.4556
thorax -5.45092 1.60623 -7.76572
lowerneck -30.269 -13.3291 -11.8909
upperneck 7.32145 -16.1187 17.0348
head 9.55722 -6.12765 4.9814
rclavicle -2.26615e-014 -6.36111e-015
rhumerus 68.3115 -32.0781 -36.3842
rradius 36.2126
rwrist 33.1953
rhand -60.9107 -13.2385
rfingers 7.12502
rthumb -33.0184 -40.2349
lclavicle -2.26615e-014 -6.36111e-015
lhumerus -36.3323 9.88288 58.9986
lradius 51.6658
lwrist -2.96531
lhand -21.532 20.9356
lfingers 7.12502
lthumb 4.86064 50.8599
rfemur -3.61365 -9.97446 25.3176
rtibia 22.7068
rfoot -26.6859 -17.5612
rtoes 1.93275
lfemur -22.2476 -9.10485 -0.729215
ltibia 34.1409
lfoot -17.7681 -12.7412
ltoes -17.2229
532
root -0.335299 17.6007 3.58762 2.08793 25.6939 -9.45838
lowerback 6.48446 2.90912 -1.02937
upperback -2.09388 3.45034 -7.44185
thorax -5.43987 1.63083 -7.67197
lowerneck -30.1156 -13.2305 -11.7971
upperneck 7.37694 -16.0478 17.0241
head 9.53612 -6.10129 4.9818
rclavicle 1.01778e-013 -6.04305e-014
rhumerus 67.0264 -31.2566 -34.8641
rradius 37.4158
rwrist 32.736
rhand -61.0763 -12.5885
rfingers 7.12502
rthumb -33.1759 -39.5514
lclavicle 1.01778e-013 -6.04305e-014
lhumerus -36.6508 9.35749 59.177
lradius 52.1266
lwrist -2.45157
lhand -21.8099 21.1991
lfingers 7.12502
lthumb 4.59233 51.1293
rfemur -3.56726 -9.8298 25.2442
rtibia 22.8307
rfoot -26.8569 -17.4759
rtoes 2.38123
lfemur -22.0709 -9.07809 -0.84063
ltibia 34.0225
lfoot -17.7328 -12.6064
ltoes -17.5753
533
root -0.354554 17.5974 3.58023 2.07837 25.6416 -9.36074
lowerback 6.40524 2.91908 -1.06574
upperback -2.05768 3.46745 -7.43531
thorax -5.35675 1.64318 -7.63687
lowerneck -29.9055 -13.1384 -11.7603
upperneck 7.34449 -15.9803 17.1317
head 9.49542 -6.07197 5.03257
rclavicle -4.37326e-015 -6.04305e-014
rhumerus 65.1872 -30.258 -32.4425
rradius 38.8901
rwrist 32.7939
rhand -60.7983 -11.29
rfingers 7.12502
rthumb -32.9115 -38.3089
lclavicle -4.37326e-015 -6.04305e-014
lhumerus -36.7834 8.86731 59.3828
lradius 52.462
lwrist -2.11456
lhand -21.7219 21.4041
lfingers 7.12502
lthumb 4.67734 51.3324
rfemur -3.59267 -9.74421 25.2146
rtibia 22.9521
rfoot -27.0354 -17.341
rtoes 2.83235
lfemur -22.0125 -9.19528 -0.888839
ltibia 33.9404
lfoot -17.6975 -12.395
ltoes -17.808
534
root -0.374703 17.5977 3.56908 2.09236 25.5915 -9.24364
lowerback 6.42742 2.92669 -1.08013
upperback -2.07458 3.47448 -7.42432
thorax -5.38793 1.64632 -7.62018
lowerneck -29.7408 -13.1001 -11.888
upperneck 7.4513 -15.9511 17.2829
head 9.53358 -6.05381 5.11459
rclavicle 4.8901e-014 1.59028e-014
rhumerus 62.9173 -28.9238 -29.2585
rradius 40.434
rwrist 33.6201
rhand -60.8086 -9.69333
rfingers 7.12502
rthumb -32.9212 -36.7101
lclavicle 4.8901e-014 1.59028e-014
lhumerus -36.8225 8.65096 59.5133
lradius 52.5162
lwrist -2.18796
lhand -21.3445 21.1058
lfingers 7.12502
lthumb 5.04174 51.0258
rfemur -3.66656 -9.69125 25.1504
rtibia 23.0302
rfoot -27.0414 -17.3281
rtoes 2.81159
lfemur -22.0045 -9.27657 -0.959736
ltibia 33.9112
lfoot -17.6851 -12.208
ltoes -17.863
535
root -0.394257 17.5966 3.56028 1.95656 25.5134 -9.33311
lowerback 6.46897 2.91142 -0.960894
upperback -2.06814 3.46614 -7.32085
thorax -5.4045 1.63883 -7.57752
lowerneck -29.7056 -13.0287 -11.9045
upperneck 7.64071 -15.8706 17.2152
head 9.57633 -6.0214 5.11186
rclavicle -5.04913e-014 -3.18055e-015
rhumerus 60.6182 -27.3024 -25.6717
rradius 42.0383
rwrist 35.0123
rhand -61.1203 -7.79837
rfingers 7.12502
rthumb -33.2177 -34.7524
lclavicle -5.04913e-014 -3.18055e-015
lhumerus -36.9819 8.60982 59.6249
lradius 52.6298
lwrist -2.33454
lhand -21.4521 21.0417
lfingers 7.12502
lthumb 4.93778 50.9642
rfemur -3.66356 -9.71433 25.2827
rtibia 23.0813
rfoot -26.8777 -17.3974
rtoes 1.77938
lfemur -21.9235 -9.28887 -0.839906
ltibia 33.9129
lfoot -17.7115 -12.0477
ltoes -18.0255
536
root -0.414226 17.5952 3.55705 1.73309 25.387 -9.37851
lowerback 6.51856 2.92132 -0.917486
upperback -1.96836 3.49095 -7.19759
thorax -5.32853 1.65395 -7.46758
lowerneck -29.6864 -12.9706 -11.9735
upperneck 7.7043 -15.765 17.157
head 9.57839 -5.98131 5.12559
rclavicle -3.10104e-014 -1.90833e-014
rhumerus 58.3514 -25.4993 -21.7918
rradius 43.9024
rwrist 36.3946
rhand -60.9462 -5.91929
rfingers 7.12502
rthumb -33.0522 -32.9085
lclavicle -3.10104e-014 -1.90833e-014
lhumerus -37.0427 8.61248 59.8124
lradius 52.6954
lwrist -2.4826
lhand -21.816 21.4582
lfingers 7.12502
lthumb 4.58645 51.3885
rfemur -3.51687 -9.68126 25.349
rtibia 23.1358
rfoot -26.797 -17.4032
rtoes 1.24103
lfemur -21.6735 -9.22781 -0.797808
ltibia 33.9039
lfoot -17.7884 -11.8848
ltoes -18.3635
537
root -0.431112 17.5952 3.54872 1.58341 25.3013 -9.4009
lowerback 6.52718 2.91897 -0.747138
upperback -1.87839 3.50927 -7.1567
thorax -5.22821 1.66144 -7.51726
lowerneck -29.6238 -12.8843 -12.0417
upperneck 7.71244 -15.6376 17.1955
head 9.56348 -5.92532 5.17874
rclavicle -9.30312e-014 5.08889e-014
rhumerus 56.1195 -23.5015 -17.7964
rradius 45.886
rwrist 37.589
rhand -60.6716 -5.38086
rfingers 7.12502
rthumb -32.791 -32.4249
lclavicle -9.30312e-014 5.08889e-014
lhumerus -36.9671 8.67885 59.8917
lradius 52.6524
lwrist -2.68699
lhand -21.671 21.378
lfingers 7.12502
lthumb 4.72641 51.3053
rfemur -3.41817 -9.71818 25.3682
rtibia 23.1775
rfoot -26.8104 -17.2522
rtoes 1.55609
lfemur -21.5197 -9.26625 -0.766006
ltibia 33.8942
lfoot -17.7774 -11.7748
ltoes -18.4054
538
root -0.450276 17.596 3.53823 1.50095 25.1984 -9.3359
lowerback 6.57293 2.91791 -0.700212
upperback -1.85419 3.51176 -7.13741
thorax -5.22668 1.66162 -7.52543
lowerneck -29.4905 -12.7255 -12.0164
upperneck 7.73483 -15.4425 17.1624
head 9.51737 -5.84647 5.20817
rclavicle -9.78021e-014 2.22639e-014
rhumerus 54.1913 -21.2206 -13.8552
rradius 47.635
rwrist 38.735
rhand -60.8321 -5.67075
rfingers 7.12502
rthumb -32.9437 -32.6828
lclavicle -9.78021e-014 2.22639e-014
lhumerus -37.0367 8.56443 59.9312
lradius 52.7077
lwrist -2.7766
lhand -21.3844 21.2634
lfingers 7.12502
lthumb 5.00321 51.1843
rfemur -3.37359 -9.69568 25.3209
rtibia 23.2084
rfoot -26.7579 -17.2041
rtoes 1.4741
lfemur -21.4125 -9.31907 -0.801481
ltibia 33.871
lfoot -17.7173 -11.6484
ltoes -18.1775
539
root -0.469309 17.5941 3.53064 1.37704 25.0648 -9.28678
lowerback 6.64845 2.93799 -0.71528
upperback -1.80565 3.53915 -7.0569
thorax -5.22061 1.67718 -7.43453
lowerneck -29.5672 -12.6174 -12.0154
upperneck 7.85245 -15.2656 16.9821
head 9.52237 -5.77682 5.18174
rclavicle 1.63003e-014 -4.13472e-014
rhumerus 52.5247 -18.8289 -9.86348
rradius 49.5079
rwrist 39.7654
rhand -61.0543 -6.31257
rfingers 7.12502
rthumb -33.1549 -33.28
lclavicle 1.63003e-014 -4.13472e-014
lhumerus -37.1831 8.3935 60.0925
lradius 52.8715
lwrist -2.90522
lhand -21.5486 21.3789
lfingers 7.12502
lthumb 4.84461 51.3035
rfemur -3.29237 -9.63569 25.2807
rtibia 23.2544
rfoot -26.7285 -17.1437
rtoes 1.66641
lfemur -21.2413 -9.37913 -0.820666
ltibia 33.8536
lfoot -17.6347 -11.5074
ltoes -17.9608
540
root -0.487518 17.5902 3.52509 1.21459 24.9707 -9.25603
lowerback 6.79624 2.94932 -0.692332
upperback -1.78399 3.55278 -6.98807
thorax -5.28284 1.6825 -7.38438
lowerneck -29.5767 -12.5226 -12.0939
upperneck 7.94804 -15.097 16.8766
head 9.52582 -5.71044 5.19323
rclavicle -7.51406e-014 2.22639e-014
rhumerus 51.0693 -16.353 -6.05054
rradius 51.5092
rwrist 40.8134
rhand -61.1285 -5.64654
rfingers 7.12502
rthumb -33.2255 -32.5989
lclavicle -7.51406e-014 2.22639e-014
lhumerus -37.3625 8.3198 60.1774
lradius 53.0064
lwrist -3.1135
lhand -21.5744 20.9433
lfingers 7.12502
lthumb 4.81974 50.8685
rfemur -3.1777 -9.53708 25.2761
rtibia 23.3122
rfoot -26.783 -17.102
rtoes 1.65542
lfemur -21.067 -9.47085 -0.825808
ltibia 33.8341
lfoot -17.5658 -11.3803
ltoes -17.7939
541
root -0.506004 17.5852 3.52019 1.11019 24.9369 -9.23914
lowerback 6.83745 2.96928 -0.626087
upperback -1.7841 3.58391 -6.97895
thorax -5.29917 1.69551 -7.41886
lowerneck -29.4248 -12.4 -12.0469
upperneck 8.01867 -14.9511 16.7501
head 9.48834 -5.66235 5.17531
rclavicle -4.65156e-014 -9.54166e-015
rhumerus 49.8689 -13.9915 -2.69457
rradius 53.3164
rwrist 42.1888
rhand -61.4338 -3.2983
rfingers 7.12502
rthumb -33.5157 -30.1883
lclavicle -4.65156e-014 -9.54166e-015
lhumerus -37.4253 8.25618 60.2083
lradius 53.0603
lwrist -3.27554
lhand -21.4994 20.6535
lfingers 7.12502
lthumb 4.89216 50.577
rfemur -3.11345 -9.41057 25.3161
rtibia 23.3601
rfoot -26.9309 -17.0845
rtoes 2.21485
lfemur -20.9987 -9.52282 -0.808383
ltibia 33.8323
lfoot -17.5333 -11.2552
ltoes -18.1077
